<?xml version="1.0" encoding="utf-8"?>
<!-- Generator: Adobe Illustrator 16.0.0, SVG Export Plug-In . SVG Version: 6.00 Build 0)  -->
<!DOCTYPE svg PUBLIC "-//W3C//DTD SVG 1.1//EN" "http://www.w3.org/Graphics/SVG/1.1/DTD/svg11.dtd">
<svg version="1.1" id="Layer_1" xmlns="http://www.w3.org/2000/svg" xmlns:xlink="http://www.w3.org/1999/xlink" x="0px" y="0px"
	 width="108px" height="45px" viewBox="0 0 108 45" enable-background="new 0 0 108 45" xml:space="preserve">
<g>
	<path fill="#FFFFFF" d="M95.566,23.798h-0.919v-6.087l1.962-2.266c0.19-0.21,0.306-0.49,0.306-0.795
		c0-0.655-0.53-1.186-1.185-1.186h-0.001h-1.082v-3.48c0-0.476-0.285-0.905-0.723-1.091c-0.149-0.064-0.306-0.094-0.462-0.094
		c-0.302,0-0.6,0.115-0.825,0.334l-2.508,2.429c-0.231,0.224-0.361,0.531-0.361,0.852v3.305l-1.62-2.314
		c-0.203-0.289-0.523-0.474-0.875-0.502c-0.033-0.003-0.065-0.004-0.097-0.004c-0.318,0-0.624,0.127-0.848,0.356l-3.911,3.994
		c-0.037,0.038-0.066,0.08-0.097,0.121v-1.154c0-0.265-0.09-0.523-0.254-0.732l-1.672-2.131c-0.211-0.269-0.528-0.434-0.87-0.452
		c-0.021-0.001-0.042-0.001-0.063-0.001c-0.32,0-0.627,0.129-0.851,0.359l-0.745,0.766c-0.022-0.459-0.311-0.867-0.742-1.04
		c-0.144-0.058-0.293-0.085-0.441-0.085c-0.317,0-0.629,0.127-0.857,0.365l-2.509,2.618c-0.211,0.221-0.33,0.515-0.33,0.821v8.353
		h-0.022c0.014-0.202-0.021-0.409-0.112-0.598c-0.198-0.41-0.613-0.671-1.068-0.671h-0.334v-7.554c0-0.276-0.096-0.542-0.271-0.755
		l-1.804-2.184c-0.209-0.252-0.514-0.408-0.841-0.428c-0.025-0.001-0.049-0.002-0.074-0.002c-0.301,0-0.593,0.115-0.813,0.323
		l-1.532,1.443l-1.05-1.319c-0.211-0.266-0.527-0.428-0.867-0.446c-0.021-0.001-0.04-0.001-0.061-0.001
		c-0.318,0-0.624,0.128-0.848,0.356l-0.313,0.32c-0.126-0.265-0.349-0.479-0.633-0.592c-0.143-0.057-0.291-0.084-0.438-0.084
		c-0.319,0-0.633,0.129-0.861,0.37l-2.518,2.659c-0.122,0.128-0.208,0.284-0.261,0.45c-0.057-0.151-0.142-0.292-0.256-0.41
		l-2.612-2.707c-0.232-0.241-0.542-0.363-0.854-0.363c-0.269,0-0.538,0.09-0.758,0.274l-4.184,3.479v-0.43
		c0-0.264-0.087-0.52-0.249-0.728l-1.663-2.138c-0.094-0.122-0.212-0.221-0.343-0.297l8.774-8.334
		c0.448-0.425,0.495-1.124,0.106-1.604c-0.233-0.289-0.577-0.441-0.923-0.441c-0.232,0-0.465,0.068-0.67,0.207L39.958,12.883V9.963
		c0-0.476-0.284-0.905-0.722-1.091c-0.15-0.064-0.308-0.095-0.464-0.095c-0.301,0-0.597,0.115-0.822,0.332l-2.518,2.419
		c-0.233,0.225-0.364,0.533-0.364,0.855v3.33l-1.642-2.346c-0.204-0.29-0.526-0.475-0.879-0.502
		c-0.032-0.002-0.063-0.003-0.093-0.003c-0.321,0-0.629,0.13-0.854,0.363l-3.895,4.036c-0.055,0.058-0.104,0.12-0.146,0.187v-3.399
		c0-0.053-0.005-0.104-0.012-0.156c1.893-0.778,3.228-2.632,3.228-4.788c0-2.929-2.294-5.225-5.223-5.225
		c-2.858,0-5.184,2.343-5.184,5.225c0,1.477,0.624,2.808,1.619,3.752h-0.865v0.028c-0.074-0.014-0.15-0.023-0.229-0.023H5.931
		c-0.516,0-0.971,0.333-1.13,0.823c-0.157,0.491,0.02,1.026,0.438,1.327c6.049,4.341,9.61,10.139,11.532,14.237
		c2.099,4.478,2.759,7.968,2.765,8.002c0.08,0.43,0.389,0.781,0.805,0.915c0.118,0.037,0.241,0.056,0.362,0.056
		c0.303,0,0.599-0.116,0.824-0.333l9.476-9.153c0.077-0.075,0.142-0.16,0.195-0.25h1.209c0.328,0,0.64-0.136,0.864-0.375
		l1.796-1.914v1.102c0,0.277,0.098,0.528,0.257,0.729c-0.127,0.188-0.201,0.415-0.201,0.658v0.806c0,0.365,0.169,0.688,0.428,0.906
		c-0.072,0.068-0.136,0.147-0.19,0.233c-0.216,0.349-0.238,0.784-0.056,1.151l1.703,3.45c0.144,0.291,0.399,0.504,0.698,0.602v0.078
		h56.522v-0.019h0.482c0.655,0,1.186-0.531,1.186-1.186v-3.449c0-0.294-0.111-0.56-0.289-0.767c0.331-0.21,0.551-0.578,0.551-0.999
		v-0.806c0-0.625-0.486-1.133-1.101-1.177l1.432-1.784c0.286-0.355,0.342-0.844,0.145-1.255
		C96.438,24.06,96.021,23.798,95.566,23.798z"/>
	<g>
		<path fill-rule="evenodd" clip-rule="evenodd" fill="#CB2026" d="M90.952,27.303h2.752l1.861-2.319H93.46v-7.715l2.268-2.619
			H93.46V9.983l-2.508,2.429V27.303 M85.773,21.8v-5.531l2.048,3.103L85.773,21.8 M83.263,27.303h3.832l2.185-2.319h-3.506v-2.375
			l4.046-4.748l-2.644-3.778l-3.913,3.995V27.303 M74.171,27.303h2.509V17.62l1.133-1.054l0.891,1.08v9.657h2.132l1.834-2.319
			h-1.538v-8.77l-1.673-2.131l-2.78,2.861v-2.861l-2.509,2.619V27.303 M94.974,29.493H36.31v-0.806h58.664V29.493"/>
		<path fill-rule="evenodd" clip-rule="evenodd" fill="#CB2026" d="M29.59,9.104c0,2.215-1.782,3.996-4.038,3.996
			c-2.217,0-3.998-1.781-3.998-3.996c0-2.258,1.781-4.038,3.998-4.038C27.808,5.066,29.59,6.847,29.59,9.104L29.59,9.104
			 M27.977,22.604l-1.02,0.705v1.079h1.02V22.604"/>
		<path fill-rule="evenodd" clip-rule="evenodd" fill="#293787" d="M59.385,16.707l2.518-2.659v2.28l2.232-2.28l1.853,2.327
			l2.47-2.327l1.805,2.183v8.739h1.521l-1.853,2.329h-2.09v-9.548l-1.093-1.376l-0.712,0.712v10.212h-2.327V17.61l-1.093-1.282
			l-0.712,0.713v10.258h-2.518V16.707 M50.456,21.79l4.274-3.895l-1.71-1.853v1.948h-2.706v-0.427l4.226-3.515l2.613,2.707v8.215
			h1.614l-1.853,2.329H54.73v-1.948l-2.232,1.948h-2.042V21.79 M54.73,24.971v-6.362l-1.805,1.662v4.7H54.73 M41.432,16.707
			l2.517-2.659v2.897l2.802-2.897l1.662,2.137v8.786h1.521l-1.805,2.329h-2.136V17.61l-0.903-1.045l-1.14,1.045v9.689h-2.517V16.707
			 M36.253,12.384l2.518-2.42v4.653h2.232l-2.232,2.613v7.741h2.089l-1.853,2.329h-2.754V12.384 M28.558,18.084l3.895-4.036
			l2.661,3.799l-4.038,4.75v2.374h3.515l-2.185,2.329h-3.849V18.084 M33.119,19.367l-2.043-3.135v5.558L33.119,19.367
			 M23.904,16.707l2.469-2.659v10.922h1.52l-1.804,2.329h-2.185V16.707"/>
		<g>
			<path fill="#293787" d="M36.369,31.258h1.155l1.259,2.587h0.194l1.246-2.587h1.15l-1.686,3.449h-1.616L36.369,31.258z"/>
			<path fill="#293787" d="M41.672,31.258h1.104v3.449h-1.104V31.258z"/>
			<path fill="#293787" d="M43.388,31.258h3.82v0.811h-2.785v0.497h2.647v0.762h-2.647v0.553h2.807v0.827h-3.842V31.258z"/>
			<path fill="#293787" d="M47.445,31.258h4.174v0.88h-1.535v2.569h-1.104v-2.569h-1.534V31.258z"/>
			<path fill="#293787" d="M51.99,31.258h1.844l1.803,2.574h0.112l-0.026-2.574h1.069v3.449h-1.828l-1.815-2.569h-0.112l0.022,2.569
				H51.99V31.258z"/>
			<path fill="#293787" d="M61.147,34.707l-0.297-0.586h-2.285l-0.293,0.586h-1.199l1.828-3.449h1.629l1.807,3.449H61.147z
				 M60.479,33.366l-0.659-1.302h-0.211l-0.664,1.302H60.479z"/>
			<path fill="#293787" d="M62.621,31.258h1.906l1.026,2.238l1.026-2.238h1.897v3.449h-1.035l0.016-2.582h-0.167l-1.298,2.582
				h-0.876l-1.297-2.582h-0.188l0.025,2.582h-1.035V31.258z"/>
			<path fill="#293787" d="M69.085,31.258h1.845l1.802,2.574h0.112l-0.026-2.574h1.069v3.449H72.06l-1.815-2.569h-0.111l0.021,2.569
				h-1.069V31.258z"/>
			<path fill="#293787" d="M74.495,31.258h3.819v0.811H75.53v0.497h2.647v0.762H75.53v0.553h2.806v0.827h-3.841V31.258z"/>
			<path fill="#293787" d="M78.552,31.258h4.174v0.88H81.19v2.569h-1.104v-2.569h-1.535V31.258z"/>
			<path fill="#293787" d="M83.148,33.793h1.104v0.914h-1.104V33.793z"/>
			<path fill="#293787" d="M84.605,31.258h1.157l1.258,2.587h0.194l1.246-2.587h1.151l-1.686,3.449h-1.617L84.605,31.258z"/>
			<path fill="#293787" d="M89.908,31.258h1.845l1.803,2.574h0.113l-0.026-2.574h1.069v3.449h-1.828l-1.815-2.569h-0.112
				l0.022,2.569h-1.07V31.258z"/>
		</g>
		<polygon fill-rule="evenodd" clip-rule="evenodd" fill="#CB2026" points="31.658,22.812 35.67,18.092 35.67,22.603 33.82,24.388 
			31.658,24.388 		"/>
		<polygon fill-rule="evenodd" clip-rule="evenodd" fill="#CB2026" points="39.354,19.051 40.754,17.701 40.849,16.475 
			44.53,12.585 44.543,14.048 55.301,3.829 40.375,14.034 42.268,14.034 39.354,17.445 		"/>
		<path fill-rule="evenodd" clip-rule="evenodd" fill="#CB2026" d="M30.179,27.883l-9.476,9.153c0,0-2.611-14.262-14.771-22.988
			h14.961V27.5l2.428-1.678v2.06h3.054l1.602-2.068v2.068H30.179z"/>
	</g>
</g>
</svg>
